<?xml version="1.0" encoding="utf-8"?>
<!-- Generator: Adobe Illustrator 28.0.0, SVG Export Plug-In . SVG Version: 6.00 Build 0)  -->
<svg version="1.1" id="Layer_1" xmlns="http://www.w3.org/2000/svg" xmlns:xlink="http://www.w3.org/1999/xlink" x="0px" y="0px"
	 viewBox="0 0 2000 2000" style="enable-background:new 0 0 2000 2000;" xml:space="preserve">
<style type="text/css">
	.st0{fill:#DBA70A;}
	.st1{fill:#FFFFFF;}
</style>
<g>
	<circle class="st0" cx="1000" cy="1000" r="874.7"/>
	<g>
		<path class="st1" d="M571.4,669.1c2.2,11.4,4.9,22.3,8.3,32.6c6.4,19.6,14.5,37.6,24.1,53.2c18.2,29.8,42.3,53.7,71.9,71
			c46.5,26.9,101.2,34.7,146.3,20.7c27-8.4,51.2-22.3,72.8-38.1l148.9-133.9c1.6-1.2,3.2-2.4,4.8-3.7c9.4-7.4,18.1-15.1,25.6-22.7
			c7.3-7.3,14.1-15,20.3-22.8c6-7.7,11.5-15.6,16.1-23.4c18.1-30.2,27.2-62.6,27.1-96.4c-0.2-33.7-9.5-66-27.4-95.9
			c-9.4-15.8-21.6-31.4-36.3-46.4c-7.7-7.6-16.3-15.2-25.5-22.6c-7.9-6.1-18.8-14.3-33.7-22.8l-14.7-8.3l-14.7,8.3
			c-15,8.4-25.9,16.6-33.7,22.8c-9.3,7.4-17.8,15-25.6,22.7c-14.7,14.8-26.9,30.4-36.2,46.1c-18.1,30.1-27.3,62.4-27.5,96.2
			c0,33.7,9.1,66.1,27.1,96.2c4.7,7.9,10.1,15.8,16.1,23.5c6.3,7.9,13.1,15.6,20.3,22.9c7.6,7.6,16.2,15.2,25.6,22.7
			c1.6,1.2,3.2,2.5,4.8,3.7c-17.1,15.6-39.2,35.9-51.2,46.8l-3.6,3.3c-112.8-129.2-199.9-137.5-214.1-138
			c-51.5-3.4-80.4,1.6-97.5,5.6L566,598l0.7,24.4C567.1,635.7,568.8,656,571.4,669.1z M952.6,588.4c-4.4-5.5-8.3-11.2-11.7-17
			c-12.6-21.1-18.7-42.5-18.7-65.4c0.1-23.2,6.4-44.6,19.1-65.9c6.8-11.6,16.1-23.2,27.2-34.5c6-6,12.7-12,20.2-17.9
			c4-3.1,7.6-5.9,11.3-8.4c3.7,2.5,7.3,5.3,11.3,8.4c7.4,5.9,14.2,11.9,20.1,17.8c11.2,11.4,20.4,23,27.4,34.7
			c12.6,21,18.8,42.5,18.9,65.5c0,23-6.1,44.4-18.8,65.7c-3.3,5.6-7.2,11.3-11.6,16.9c-4.9,6.2-9.9,11.9-15.6,17.6
			c-5.9,5.9-12.7,11.9-20.2,17.8c-3.2,2.5-7,5.4-11.5,8.5c-4.5-3.1-8.3-6-11.5-8.5c-7.6-5.9-14.3-11.9-20.3-17.8
			C962.6,600.3,957.5,594.6,952.6,588.4z M684,646.5l0.3,0.1l1.1-0.1c5,0.4,75.1,8.2,170,116.4c-15.9,11.2-33,20.8-51.1,26.4
			c-29,9-66.7,3.1-98.5-15.3c-21.2-12.4-37.8-28.9-51.1-50.5c-7.2-11.7-13.3-25.3-18.2-40.3c-2.5-7.9-4.7-16.5-6.4-25.6
			c-0.6-2.9-1.1-6.8-1.7-11.1C641.5,645.4,659.6,644.9,684,646.5z"/>
		<path class="st1" d="M1555.2,972.2c-10.9-13.6-21.3-23.5-29.2-30.6c-9.2-8.3-18.9-15.9-28.6-22.9c-18.5-12.9-37.7-23.6-57.1-31.7
			c-36.1-15.3-74.7-23.2-114.9-23.3h-0.3c-39.9,0-78.4,7.8-114.4,23c-9.7,4-19.4,8.8-28.8,14c-9.9,5.5-19.5,11.5-28.5,18
			c-9.6,6.8-19.2,14.5-28.6,22.9c-2.1,1.8-4.3,3.9-6.7,6.2l-48.6-48.1l-21.7-21.5l-41.7,43l21,20.9l48.9,48.5l-75.9,74.3l-25.5-25
			l-42.8-42l-41.7,43l36.5,35.9l2.5,2.4l26.8,26.2l1.4,1.3l-67.9,66.4c-57.2-52.2-146.7-60.8-221.7-17.4
			c-29.5,17.3-53.7,41.2-71.8,70.8c-9.7,15.7-17.8,33.7-24.2,53.4c-3.3,10.2-6.1,21.2-8.2,32.5c-2.5,13.2-4.3,33.4-4.7,46.8
			l-0.7,24.5l23.8,5.6c17.2,4,46,9,97.5,5.6c13.6-0.5,96.8-8.3,205.3-128.1l43.6-43.9l72.8-73.1l1.5-1.5l40.9-41.1l1.3-1.3
			l61.1-61.4l0.3-0.3l53.3-53.5c1.8-1.7,3.6-3.3,5.2-4.8c7.6-6.8,15.4-13.1,23-18.5c7.4-5.3,14.9-10,23.1-14.5
			c7.5-4.2,15.2-7.9,22.9-11.1c29.1-12.3,58.9-18.3,91.2-18.3h0.2c32.4,0.2,62.4,6.3,91.8,18.7c15.5,6.5,31,15.1,45.9,25.5
			c7.8,5.5,15.5,11.7,23,18.5c1.6,1.4,3.3,2.9,5,4.6c-1.8,1.7-3.5,3.3-5.1,4.7c-7.5,6.8-15.2,12.9-22.9,18.3
			c-15,10.5-30.5,19.2-46.1,25.6c-29.2,12.4-59.2,18.4-91.5,18.6h-0.3c-32.1,0-61.9-6-91.1-18.2c-0.1-0.1-0.2-0.1-0.3-0.2
			c-0.8-0.3-1.6-0.7-2.4-1c-6.8-2.9-13.6-6.3-20.4-10c-8.1-4.5-15.6-9.2-23-14.5c-5.6-4-11.2-8.4-16.9-13.2l-43.1,42
			c8.4,7.4,17,14.1,25.4,20.1c8.6,6.1,17.8,11.9,27.1,17.1c0.4,0.3,0.9,0.5,1.4,0.8c2.5,1.4,5,2.7,7.5,4c7,3.7,14.2,7,21.3,10
			c36.2,15.3,74.7,23.1,114.6,23.1h0.3c40-0.2,78.7-8,114.7-23.3c19.5-8.1,38.7-18.8,57.3-31.8c9.7-6.8,19.3-14.4,28.6-22.8
			c7.9-7.1,18.4-17,29.2-30.6l14.8-18.7L1555.2,972.2z M843,1223.6c-92,102.8-159.7,110.9-165.4,111.4h-0.1l-1.4,0.1
			c-24.3,1.7-42.4,1.1-55.5-0.1c0.5-4.3,1.1-8.3,1.6-11.1c1.8-9,3.9-17.7,6.4-25.5c4.9-15.1,11-28.6,18.3-40.4
			c13.1-21.5,29.8-38.1,50.8-50.3c44.6-25.9,108.9-29.2,151.1,9.6C846.9,1219.3,844.9,1221.4,843,1223.6z"/>
		<path class="st1" d="M674.6,1118h0.3c39.8,0,78.4-7.8,114.4-23c9.7-4,19.4-8.8,28.8-14c9.9-5.4,19.4-11.5,28.5-17.9
			c9.6-6.8,19.2-14.4,28.6-22.9c2.2-2,4.6-4.2,7.1-6.6l41.7-43l-0.1-0.1l6.1-6L1145,762.6c94.1-107.1,163.7-115.5,169.5-116l0.2,0.1
			l1.4-0.1c24.4-1.6,42.4-1.1,55.4,0.1c-0.5,4.4-1,8.2-1.6,11.1c-1.7,9.1-3.9,17.7-6.4,25.5c-4.9,15.1-11,28.7-18.3,40.5
			c-13.1,21.5-29.8,38-51,50.4c-18.6,10.9-38.8,17.5-57.9,19.1c-3.2,0.3-6.3,0.5-9.4,0.5c-8.6,0-16.9-0.9-24.7-3
			c-15-4-31.3-11.5-48.3-22.3l-42.4,43.8c13.4,9.1,26.6,16.8,39.6,23c12.1,5.7,23.9,10.1,35.6,13.3c1.7,0.4,3.3,0.8,5.1,1.2
			c42,9.6,90,1,132.7-24c29.5-17.3,53.7-41.2,71.8-70.8c9.7-15.7,17.8-33.7,24.3-53.4c3.2-10.2,6-21.2,8.2-32.5
			c2.5-13.1,4.3-33.5,4.7-46.7l0.7-24.4l-23.8-5.6c-17.2-4-46-9-97.5-5.7c-14.2,0.5-101.4,8.8-214.2,138l-44.8-40.9l-45.2,39.8
			l29.2,26.7l19,17.4l0.1,0.1l-45,46.2l-14.1,14.5l-17.9-17.8c-6.8-6.8-13.4-13.5-19.7-20c-4.4-4.5-8.5-8.9-12.6-13.3l-45,39.6
			c3.3,3.5,6.5,7,9.9,10.5c8.1,8.5,16.5,17.1,25.3,25.8l18.3,18.2L882,947.7c-2.4-2.3-4.7-4.4-6.7-6.2c-9.4-8.5-19-16.2-28.5-22.9
			c-9.1-6.4-18.7-12.4-28.5-17.9c-9.5-5.3-19.2-10-28.7-14c-36.2-15.3-74.7-23-114.7-23h-0.3c-40,0.2-78.6,8-114.6,23.3
			c-19.5,8.1-38.7,18.9-57.3,31.8c-9.7,6.9-19.3,14.5-28.5,22.8c-7.9,7.2-18.4,17-29.2,30.6l-14.8,18.6l14.8,18.7
			c10.8,13.6,21.3,23.5,29.2,30.6c9.2,8.3,18.9,15.9,28.6,22.8c18.5,13,37.7,23.7,57.1,31.7C595.9,1109.9,634.5,1117.8,674.6,1118z
			 M514,995.5c-1.5-1.4-3.3-3-5-4.7c1.8-1.7,3.5-3.2,5-4.6c7.5-6.7,15.3-12.9,23-18.3c14.9-10.5,30.5-19.1,46.1-25.6
			c29.1-12.4,59.1-18.4,91.5-18.6c32.5,0,62.3,6,91.7,18.4c7.6,3.2,15.2,6.9,22.8,11.1c8,4.4,15.6,9.1,23,14.4
			c7.6,5.4,15.4,11.7,23,18.5c1.6,1.5,3.4,3.1,5.2,4.8c-1.8,1.8-3.6,3.4-5.2,4.9c-7.7,6.9-15.4,13.1-23,18.5
			c-7.4,5.2-15,10-23.1,14.5c-7.5,4.2-15.2,7.9-22.9,11.1c-29.1,12.3-59,18.3-91.2,18.3h-0.2c-32.5-0.2-62.5-6.2-91.8-18.6
			c-15.5-6.5-31-15.1-45.9-25.6C529.3,1008.4,521.6,1002.2,514,995.5z"/>
		<path class="st1" d="M966.9,1309.2c-4.4-15-9.7-29.1-15.5-42.3c-5.5-12.5-11.5-24.1-17.6-34.7l-44.1,44c4.9,9.4,9.5,19.4,13.5,30
			c6.4,16.3,11.4,34,14.5,52.6c12.7,78.4-10.3,176-127.7,278.8c-12.1,10.6-13.8,28.8-3.8,41.4c6,7.4,14.7,11.2,23.4,11.2
			c7,0,13.9-2.4,19.6-7.4c101.9-89.2,152.5-187,150.5-290.8C979.2,1362.2,974.3,1334.5,966.9,1309.2z"/>
		<path class="st1" d="M1401.8,1223.5c-30.8-46.8-79.9-82-134.8-92.6c-55-10.6-115.1,4.5-156.2,42.4c-1.6-1.5-3.1-3-4.7-4.5
			c-5.2-5.2-10.4-10.2-15.6-15.3c-12.6-12.4-25.3-24.8-37.8-37.2c-1,0-19.7,19.2-21.5,21c-3.7,3.6-7.4,7.1-11,10.7
			c-1.8,1.7-3.5,3.4-5.3,5.1c-1,1-5,3.9-5,5.3c0,1.2,4.2,4.2,5,5c1.9,1.9,3.8,3.8,5.7,5.6c3.7,3.6,7.3,7.1,10.9,10.8
			c4.1,4,8.2,8,12.2,12c3.2,3.2,6.4,6.3,9.6,9.4c3.5,3.4,7,6.9,10.5,10.3c3.2,3.2,6.4,6.3,9.6,9.4c-48.9,73.4-64.9,167.9-42.9,253.3
			c20.5,79.5,71.9,148.5,133.6,202.6c5.7,4.9,11.6,9.9,18.8,12.1c18.4,5.8,39.7-12.3,36.8-31.4c-2.1-13.5-13.1-23.5-23.2-32.7
			c-55.2-50.5-101.9-114.6-113.9-188.4c-10.4-63.3,6.2-129.8,41.2-183.5c14.2-21.8,31.8-42.1,55.1-53.8c20.8-10.5,45-13.3,68.1-10.3
			c28.9,3.7,56.6,16.4,78.4,35.9c31,27.8,48.9,68.4,53.9,109.8c-42.3,8.5-86.6-3.8-123.7-25.8c-16-9.4-30.8-20.5-44.8-32.6
			c-9.2-7.9-18.1-16.1-26.6-24.7c-8.9-8.8-17.6-17.8-26.2-26.9c-15.7,16.3-27.2,36.2-35.3,50.2c13.5,13.8,27.5,27.5,42.1,40.4
			c3,2.8,6.1,5.4,9.2,8c35.3,30,74.3,55,118.9,66.3c48.6,12.3,100.2,7.2,148.5-5.7c0.7-8.1,0.9-16.3,0.8-24.5
			C1441.4,1311.3,1428.2,1263.5,1401.8,1223.5z"/>
	</g>
</g>
</svg>
