<?xml version="1.0" encoding="UTF-8"?>
<svg id="Layer_1" data-name="Layer 1" xmlns="http://www.w3.org/2000/svg" viewBox="0 0 2000 2000">
  <defs>
    <style>
      .cls-1 {
        fill: #fff;
        stroke-width: 0px;
      }
    </style>
  </defs>
  <path class="cls-1" d="m571.35,669.14c2.16,11.35,4.93,22.32,8.25,32.62,6.37,19.61,14.46,37.55,24.15,53.17,18.17,29.8,42.32,53.67,71.95,71.01,46.53,26.92,101.19,34.67,146.34,20.72,27.03-8.36,51.18-22.32,72.78-38.11l148.88-133.93c1.61-1.16,3.21-2.44,4.82-3.66,9.42-7.42,18.06-15.07,25.64-22.65,7.26-7.26,14.07-14.95,20.27-22.82,6.04-7.7,11.47-15.62,16.06-23.43,18.06-30.19,27.2-62.59,27.14-96.43-.22-33.68-9.47-65.97-27.36-95.93-9.36-15.84-21.6-31.41-36.33-46.36-7.7-7.64-16.28-15.23-25.53-22.6-7.87-6.15-18.78-14.35-33.73-22.76l-14.68-8.31-14.68,8.31c-14.95,8.42-25.92,16.62-33.73,22.76-9.31,7.37-17.83,14.95-25.59,22.71-14.73,14.84-26.92,30.41-36.17,46.14-18.06,30.08-27.31,62.37-27.53,96.21,0,33.68,9.08,66.08,27.08,96.15,4.71,7.92,10.14,15.84,16.12,23.48,6.26,7.92,13.07,15.62,20.33,22.88,7.59,7.59,16.23,15.23,25.64,22.65,1.61,1.22,3.21,2.49,4.76,3.66-17.06,15.62-39.21,35.89-51.18,46.8l-3.6,3.27c-112.77-129.22-199.9-137.47-214.13-137.97-51.51-3.38-80.37,1.61-97.54,5.65l-23.82,5.59.72,24.43c.39,13.29,2.1,33.62,4.65,46.75Zm381.24-80.76c-4.38-5.54-8.25-11.24-11.69-17-12.57-21.1-18.72-42.54-18.67-65.36.11-23.15,6.37-44.64,19.05-65.86,6.81-11.58,16.06-23.21,27.2-34.51,5.98-5.98,12.74-12.02,20.22-17.89,3.99-3.1,7.64-5.87,11.3-8.42,3.66,2.55,7.31,5.32,11.3,8.42,7.42,5.87,14.18,11.91,20.11,17.83,11.24,11.35,20.44,22.99,27.42,34.73,12.57,21.05,18.78,42.54,18.94,65.52,0,22.99-6.09,44.42-18.78,65.69-3.32,5.59-7.2,11.3-11.63,16.89-4.87,6.2-9.91,11.91-15.62,17.56-5.87,5.93-12.68,11.91-20.22,17.84-3.21,2.55-7.03,5.43-11.52,8.53-4.54-3.1-8.31-5.98-11.52-8.53-7.59-5.93-14.35-11.91-20.27-17.84-5.65-5.65-10.75-11.35-15.62-17.61Zm-268.58,58.16l.28.11,1.11-.06c4.99.44,75.11,8.2,170.04,116.43-15.9,11.24-33.01,20.83-51.12,26.42-28.97,8.97-66.74,3.1-98.48-15.29-21.16-12.35-37.83-28.86-51.07-50.51-7.2-11.69-13.29-25.26-18.17-40.27-2.55-7.92-4.71-16.51-6.42-25.59-.61-2.88-1.11-6.76-1.66-11.13,13.02-1.22,31.13-1.72,55.5-.11Z"/>
  <path class="cls-1" d="m1555.21,972.16c-10.86-13.62-21.33-23.48-29.25-30.57-9.25-8.31-18.88-15.95-28.63-22.88-18.5-12.9-37.72-23.65-57.11-31.73-36.11-15.29-74.72-23.16-114.87-23.32h-.28c-39.88,0-78.43,7.75-114.43,22.98-9.69,4.05-19.39,8.76-28.8,13.96-9.86,5.54-19.5,11.52-28.53,17.95-9.58,6.76-19.22,14.45-28.58,22.93-2.05,1.83-4.32,3.93-6.7,6.2l-48.63-48.13-21.66-21.49-41.65,42.98,21.05,20.88,48.85,48.47-75.94,74.33-25.53-24.98-42.82-41.99-41.7,43.04,36.5,35.89,2.49,2.44,26.75,26.25,1.39,1.33-67.85,66.41c-57.22-52.23-146.73-60.81-221.72-17.39-29.53,17.28-53.67,41.15-71.79,70.84-9.69,15.73-17.83,33.68-24.2,53.4-3.27,10.24-6.09,21.21-8.25,32.51-2.5,13.18-4.27,33.45-4.66,46.75l-.72,24.48,23.82,5.59c17.23,4.05,46.03,8.98,97.54,5.6,13.62-.45,96.76-8.26,205.32-128.06l43.65-43.87,72.78-73.06,1.49-1.49,40.94-41.1,1.33-1.33,61.14-61.37.28-.33,53.34-53.51c1.83-1.71,3.6-3.32,5.21-4.81,7.64-6.82,15.39-13.08,23.04-18.5,7.42-5.27,14.95-9.97,23.09-14.46,7.54-4.21,15.18-7.92,22.94-11.13,29.07-12.3,58.93-18.34,91.16-18.34h.23c32.45.17,62.42,6.26,91.77,18.67,15.51,6.48,30.97,15.12,45.92,25.53,7.76,5.49,15.51,11.69,23.04,18.45,1.55,1.38,3.27,2.93,5.04,4.59-1.77,1.72-3.49,3.27-5.09,4.71-7.48,6.76-15.23,12.91-22.93,18.34-15.01,10.52-30.47,19.16-46.14,25.64-29.19,12.41-59.16,18.44-91.5,18.61h-.28c-32.13,0-61.92-5.98-91.06-18.22-.11-.06-.22-.11-.33-.17-.78-.33-1.61-.66-2.38-1.05-6.81-2.88-13.63-6.26-20.44-10.03-8.09-4.48-15.62-9.25-23.04-14.45-5.6-3.99-11.25-8.37-16.9-13.18l-43.09,41.98c8.42,7.37,16.95,14.12,25.43,20.11,8.64,6.14,17.83,11.9,27.14,17.11.44.28.94.5,1.38.78,2.49,1.38,4.99,2.71,7.48,3.98,7.03,3.71,14.18,7.04,21.27,9.97,36.17,15.29,74.66,23.05,114.65,23.05h.28c40.04-.17,78.65-8.04,114.65-23.27,19.5-8.14,38.72-18.83,57.27-31.85,9.7-6.81,19.28-14.45,28.58-22.76,7.92-7.09,18.39-17,29.25-30.63l14.84-18.67-14.84-18.61Zm-712.24,251.41c-92,102.8-159.74,110.89-165.44,111.39h-.11l-1.44.11c-24.32,1.66-42.43,1.1-55.45-.11.5-4.32,1.05-8.26,1.61-11.14,1.77-9.03,3.93-17.67,6.42-25.53,4.88-15.07,11.03-28.64,18.28-40.43,13.13-21.55,29.8-38.06,50.85-50.35,44.64-25.87,108.95-29.25,151.1,9.58-1.94,2.16-3.88,4.32-5.82,6.48Z"/>
  <path class="cls-1" d="m674.59,1117.95h.33c39.83,0,78.38-7.76,114.44-22.99,9.69-3.99,19.38-8.75,28.8-14.01,9.86-5.43,19.44-11.47,28.52-17.89,9.58-6.76,19.17-14.41,28.58-22.88,2.22-1.99,4.6-4.21,7.15-6.65l41.7-43.03-.11-.11,6.1-6.04,214.85-221.72c94.1-107.12,163.73-115.54,169.49-116.04l.16.06,1.39-.11c24.37-1.61,42.42-1.06,55.44.11-.5,4.37-1.05,8.25-1.61,11.13-1.71,9.08-3.87,17.67-6.37,25.48-4.93,15.12-11.02,28.69-18.33,40.49-13.13,21.54-29.8,38.05-50.96,50.4-18.61,10.91-38.82,17.45-57.93,19.11-3.22.33-6.32.5-9.42.5-8.58.05-16.89-.94-24.65-2.99-15.01-3.99-31.29-11.52-48.29-22.27l-42.43,43.81c13.4,9.14,26.58,16.84,39.6,23.04,12.07,5.71,23.93,10.14,35.61,13.3,1.67.44,3.33.83,5.05,1.22,41.98,9.58,90,.99,132.71-23.99,29.52-17.28,53.67-41.15,71.78-70.84,9.69-15.73,17.83-33.67,24.26-53.39,3.21-10.19,6.04-21.16,8.2-32.52,2.54-13.12,4.26-33.45,4.65-46.74l.72-24.43-23.82-5.59c-17.22-4.05-46.03-9.03-97.54-5.65-14.23.5-101.41,8.75-214.18,137.97l-44.81-40.93-45.2,39.82,29.25,26.7,18.99,17.39.06.06-44.98,46.19-14.06,14.51-17.89-17.78c-6.82-6.76-13.41-13.46-19.72-20.05-4.38-4.49-8.53-8.86-12.63-13.29l-44.98,39.6c3.27,3.49,6.54,6.98,9.86,10.52,8.09,8.48,16.51,17.06,25.32,25.76l18.33,18.22-74.06,76.27c-2.38-2.27-4.65-4.37-6.7-6.2-9.36-8.48-19-16.17-28.52-22.93-9.14-6.43-18.72-12.41-28.53-17.89-9.47-5.26-19.22-9.97-28.74-13.96-36.17-15.29-74.67-23.04-114.66-23.04h-.33c-39.99.16-78.6,8.03-114.6,23.26-19.49,8.14-38.71,18.89-57.32,31.85-9.7,6.87-19.28,14.51-28.53,22.76-7.92,7.15-18.39,17.01-29.24,30.63l-14.85,18.61,14.85,18.67c10.85,13.63,21.32,23.54,29.24,30.63,9.25,8.31,18.89,15.95,28.64,22.82,18.5,12.96,37.72,23.65,57.05,31.74,36.16,15.28,74.77,23.15,114.87,23.32Zm-160.57-122.47c-1.55-1.44-3.27-2.99-5.04-4.71,1.77-1.66,3.49-3.21,5.04-4.65,7.53-6.7,15.29-12.9,22.99-18.33,14.95-10.47,30.46-19.11,46.14-25.65,29.13-12.35,59.09-18.44,91.5-18.61,32.51,0,62.31,5.98,91.66,18.39,7.59,3.16,15.24,6.87,22.82,11.13,8.03,4.44,15.62,9.14,23.05,14.41,7.64,5.42,15.39,11.68,23.04,18.5,1.6,1.49,3.38,3.1,5.2,4.81-1.82,1.78-3.6,3.44-5.2,4.88-7.65,6.87-15.4,13.07-23.04,18.5-7.43,5.2-15.02,9.97-23.1,14.51-7.53,4.15-15.18,7.86-22.93,11.08-29.14,12.29-58.99,18.33-91.17,18.33h-.22c-32.52-.17-62.48-6.2-91.78-18.61-15.51-6.48-31.02-15.12-45.92-25.59-7.75-5.48-15.51-11.63-23.04-18.39Z"/>
  <path class="cls-1" d="m966.87,1309.2c-4.43-15.01-9.74-29.13-15.5-42.26-5.54-12.46-11.53-24.09-17.62-34.73l-44.09,44.03c4.88,9.42,9.47,19.45,13.46,30.02,6.37,16.34,11.41,33.96,14.46,52.62,12.68,78.43-10.3,175.97-127.67,278.83-12.08,10.63-13.85,28.8-3.77,41.37,5.98,7.42,14.68,11.25,23.43,11.25,6.98,0,13.9-2.44,19.61-7.37,101.86-89.23,152.48-186.99,150.54-290.84-.55-29.91-5.42-57.66-12.85-82.92Z"/>
  <path class="cls-1" d="m1401.84,1223.51c-30.8-46.8-79.87-81.97-134.82-92.6-55-10.64-115.09,4.48-156.25,42.42-1.55-1.49-3.1-3.04-4.65-4.54-5.21-5.15-10.41-10.25-15.62-15.34-12.63-12.41-25.26-24.82-37.83-37.17-1,0-19.72,19.22-21.55,21-3.65,3.6-7.36,7.14-11.02,10.74-1.77,1.72-3.49,3.43-5.26,5.15-1.05,1-5.04,3.88-5.04,5.26,0,1.17,4.15,4.16,4.99,4.99,1.93,1.88,3.82,3.77,5.7,5.59,3.66,3.6,7.31,7.15,10.91,10.75,4.1,3.99,8.2,7.97,12.24,11.96,3.21,3.16,6.43,6.26,9.64,9.42,3.49,3.43,7.03,6.92,10.52,10.3,3.22,3.16,6.37,6.31,9.59,9.42-48.91,73.39-64.92,167.88-42.87,253.29,20.54,79.53,71.89,148.49,133.65,202.61,5.65,4.93,11.63,9.91,18.77,12.13,18.39,5.81,39.66-12.35,36.84-31.41-2.05-13.51-13.13-23.54-23.21-32.73-55.22-50.46-101.91-114.55-113.93-188.38-10.36-63.31,6.2-129.77,41.2-183.55,14.18-21.77,31.85-42.1,55.06-53.79,20.77-10.47,44.98-13.29,68.07-10.3,28.92,3.71,56.61,16.45,78.38,35.89,31.01,27.81,48.9,68.41,53.89,109.78-42.26,8.53-86.63-3.82-123.74-25.75-16-9.42-30.79-20.5-44.81-32.63-9.19-7.86-18.05-16.11-26.64-24.7-8.92-8.75-17.61-17.78-26.2-26.86-15.73,16.34-27.25,36.22-35.28,50.23,13.52,13.8,27.53,27.53,42.1,40.38,3.04,2.77,6.09,5.43,9.19,7.98,35.34,30.02,74.33,55,118.86,66.3,48.58,12.35,100.15,7.25,148.5-5.65.66-8.14.89-16.34.77-24.48-.6-47.91-13.84-95.77-40.15-135.71Z"/>
</svg>